<svg xmlns="http://www.w3.org/2000/svg" xmlns:xlink="http://www.w3.org/1999/xlink" width="1080" zoomAndPan="magnify" viewBox="0 0 810 809.999993" height="1080" preserveAspectRatio="xMidYMid meet" version="1.0"><defs><filter x="0%" y="0%" width="100%" height="100%" id="f3858936a3"><feColorMatrix values="0 0 0 0 1 0 0 0 0 1 0 0 0 0 1 0 0 0 1 0" color-interpolation-filters="sRGB"/></filter><g/><mask id="b209c3c0ce"><g filter="url(#f3858936a3)"><rect x="-81" width="972" fill="#000000" y="-80.999999" height="971.999992" fill-opacity="0.54"/></g></mask><clipPath id="a6bc23f95a"><path d="M 0 3 L 810 3 L 810 778 L 0 778 Z M 0 3 " clip-rule="nonzero"/></clipPath><clipPath id="f6b25be2c0"><rect x="0" width="810" y="0" height="792"/></clipPath></defs><rect x="-81" width="972" fill="#ffffff" y="-80.999999" height="971.999992" fill-opacity="1"/><rect x="-81" width="972" fill="#bfd3fe" y="-80.999999" height="971.999992" fill-opacity="1"/><g mask="url(#b209c3c0ce)"><g transform="matrix(1, 0, 0, 1, 0, 9)"><g clip-path="url(#f6b25be2c0)"><g clip-path="url(#a6bc23f95a)"><path fill="#f2f2f2" d="M 150.589844 100.082031 C 170.09375 88.148438 191.203125 79.425781 213.457031 74.144531 C 230.4375 70.242188 248.332031 67.949219 263.015625 58.539062 C 273.800781 51.421875 282.519531 40.632812 294.679688 36.273438 C 311.429688 30.074219 330.929688 37.421875 347.222656 30.535156 C 361.445312 24.566406 370.394531 9.1875 385.078125 4.828125 C 398.15625 0.925781 412.382812 6.894531 422.9375 15.613281 C 433.492188 24.335938 441.75 35.585938 451.847656 44.996094 C 456.894531 49.585938 462.859375 53.71875 469.515625 53.257812 C 472.957031 53.027344 476.167969 51.421875 479.609375 51.191406 C 488.097656 50.503906 495.671875 56.011719 497.507812 64.277344 C 498.652344 70.933594 496.128906 79.652344 501.636719 83.785156 C 504.617188 86.082031 508.519531 86.082031 512.191406 86.769531 C 515.863281 87.457031 519.761719 90.210938 519.304688 93.882812 C 518.84375 97.785156 513.796875 99.164062 509.894531 99.621094 C 485.117188 102.378906 460.335938 104.671875 435.558594 106.28125 C 396.09375 108.804688 353.417969 104.441406 314.640625 112.246094 C 279.308594 119.363281 237.320312 119.132812 203.589844 104.902344 C 198.542969 102.835938 193.496094 100.3125 187.988281 100.3125 C 184.546875 100.542969 181.105469 101.230469 177.894531 102.378906 C 168.488281 104.441406 159.078125 103.523438 150.589844 100.082031 Z M 344.007812 456.769531 C 347.910156 457.230469 351.8125 459.296875 355.710938 459.984375 C 365.578125 461.589844 374.527344 454.015625 382.328125 446.671875 C 383.472656 444.148438 380.261719 442.3125 377.96875 442.3125 L 336.207031 441.394531 C 325.882812 441.164062 314.871094 440.703125 306.152344 434.046875 C 303.628906 431.753906 300.644531 429.457031 297.890625 427.621094 C 289.171875 422.800781 278.847656 427.851562 269.210938 427.160156 C 261.410156 426.703125 254.070312 422.113281 246.496094 419.816406 C 234.105469 416.375 221.027344 418.441406 210.246094 425.554688 C 199.460938 432.441406 193.039062 445.753906 180.1875 448.050781 C 176.289062 448.738281 172.386719 448.507812 168.714844 450.34375 C 164.585938 452.410156 162.519531 457 163.210938 461.589844 C 164.355469 465.492188 168.027344 467.328125 171.242188 468.476562 C 183.171875 472.839844 196.019531 474.902344 208.867188 474.675781 C 211.851562 484.316406 220.800781 488.675781 229.058594 489.132812 C 236.859375 489.59375 244.433594 487.527344 251.085938 483.398438 C 257.738281 479.265625 263.707031 472.839844 270.816406 469.855469 C 280.914062 465.722656 291.695312 469.164062 302.25 468.9375 C 309.824219 468.707031 316.9375 466.871094 323.820312 463.65625 C 330.242188 460.902344 336.898438 455.851562 344.007812 456.769531 Z M 897.652344 405.816406 C 892.832031 404.207031 887.558594 403.519531 882.507812 403.519531 C 877.230469 403.519531 871.726562 404.4375 866.90625 402.601562 C 863.695312 401.226562 860.710938 399.160156 857.957031 397.09375 C 841.210938 385.617188 823.542969 387.683594 804.726562 384.011719 C 790.042969 381.027344 772.605469 365.648438 757.921875 375.746094 C 751.269531 380.109375 748.054688 388.832031 740.945312 392.273438 C 727.175781 399.160156 709.511719 382.632812 695.972656 390.207031 C 691.382812 392.960938 688.632812 397.78125 684.960938 401.914062 C 667.523438 421.195312 635.171875 413.621094 611.769531 424.867188 C 605.34375 428.078125 598.917969 433.816406 598.917969 440.933594 C 610.160156 438.867188 621.632812 439.785156 632.417969 443.6875 C 637.234375 445.753906 642.054688 447.359375 646.871094 448.738281 C 659.492188 451.492188 672.570312 446.210938 685.417969 444.835938 C 704.921875 442.769531 724.421875 449.425781 743.925781 449.886719 C 760.445312 450.34375 776.964844 446.210938 793.257812 449.425781 C 799.679688 450.574219 805.875 452.867188 812.300781 453.097656 C 837.539062 454.015625 856.582031 424.867188 881.589844 426.472656 C 886.867188 426.703125 891.917969 428.539062 897.191406 428.308594 C 902.46875 428.078125 908.207031 425.324219 909.582031 420.277344 C 911.648438 413.621094 904.304688 407.882812 897.652344 405.816406 Z M 49.175781 281.640625 C 79.691406 279.34375 110.4375 292.199219 140.496094 285.542969 C 149.214844 283.707031 157.703125 280.261719 166.421875 278.886719 C 177.207031 277.507812 187.988281 279.34375 198.773438 280.492188 C 223.78125 282.789062 249.019531 279.804688 273.113281 272 C 275.175781 266.949219 270.128906 261.902344 265.769531 260.0625 C 246.039062 252.261719 220.800781 262.128906 205.886719 243.996094 C 202.214844 239.40625 199.460938 233.4375 195.332031 229.308594 C 186.382812 220.125 173.304688 222.191406 161.832031 223.570312 C 150.359375 224.945312 136.363281 223.570312 130.398438 211.402344 C 128.792969 208.191406 127.875 204.519531 126.269531 201.535156 C 120.535156 191.664062 107.914062 192.582031 100.113281 199.699219 C 92.3125 206.8125 87.722656 217.832031 82.21875 227.929688 C 76.710938 238.03125 69.367188 247.667969 59.730469 248.816406 C 49.636719 249.964844 40.457031 241.703125 30.363281 239.867188 C 12.238281 236.882812 -2.90625 255.242188 -15.984375 271.082031 C -26.078125 283.246094 -37.320312 293.117188 -51.546875 295.871094 C -59.117188 297.246094 -66.921875 295.871094 -74.261719 298.625 C -42.597656 324.5625 15.449219 284.394531 49.175781 281.640625 Z M 686.335938 760.210938 C 666.832031 752.40625 640.90625 758.832031 626.683594 742.996094 C 623.011719 739.09375 620.714844 734.042969 616.816406 730.371094 C 608.328125 722.335938 595.019531 723.027344 583.316406 723.484375 C 571.617188 723.945312 557.621094 721.878906 552.34375 711.320312 C 550.964844 708.566406 550.277344 705.582031 548.671875 703.054688 C 543.625 694.5625 530.773438 694.5625 522.285156 699.84375 C 513.796875 705.121094 508.75 713.84375 502.554688 721.648438 C 496.589844 729.453125 488.328125 736.796875 478.460938 737.027344 C 468.136719 737.257812 459.417969 729.910156 449.324219 727.84375 C 431.199219 724.171875 414.675781 737.945312 400.683594 749.878906 C 389.898438 759.0625 377.738281 766.175781 363.28125 767.554688 C 355.480469 768.242188 347.679688 766.40625 340.109375 768.242188 C 370.394531 791.425781 431.199219 762.964844 465.613281 763.191406 C 496.589844 763.421875 526.875 776.046875 557.847656 772.832031 C 566.796875 771.914062 575.515625 769.621094 584.464844 769.390625 C 595.476562 768.929688 606.261719 771.226562 617.273438 772.832031 C 642.285156 776.507812 667.980469 775.816406 692.761719 770.996094 C 695.285156 766.175781 690.695312 761.816406 686.335938 760.210938 Z M 966.484375 184.777344 C 959.371094 181.105469 951.570312 181.566406 944 179.957031 C 918.992188 175.367188 906.371094 149.429688 885.261719 135.660156 C 863.695312 121.65625 837.996094 117.066406 814.363281 124.183594 C 799.453125 128.773438 784.996094 137.496094 769.625 138.414062 C 750.808594 139.789062 730.617188 129.460938 713.410156 139.101562 C 707.445312 142.316406 702.625 147.59375 697.121094 151.726562 C 679.914062 164.808594 658.34375 165.726562 637.925781 166.1875 L 555.785156 168.023438 C 551.195312 168.023438 545 171.925781 547.296875 176.746094 C 562.667969 190.976562 580.5625 205.894531 599.609375 202.683594 C 607.410156 201.304688 614.75 197.171875 622.550781 196.253906 C 636.546875 194.878906 649.394531 204.519531 662.246094 210.945312 C 675.324219 217.601562 689.777344 221.042969 704.234375 221.503906 C 724.882812 221.734375 746.449219 215.304688 765.953125 223.339844 C 779.949219 229.078125 791.648438 241.472656 804.726562 249.734375 C 817.578125 258 832.71875 261.902344 847.863281 260.980469 C 864.152344 260.0625 881.820312 251.113281 887.554688 232.519531 C 912.566406 232.980469 937.574219 228.617188 961.207031 220.355469 C 967.632812 218.058594 974.972656 214.386719 977.039062 206.582031 C 979.5625 197.863281 973.597656 188.449219 966.484375 184.777344 Z M 129.253906 714.304688 C 124.433594 712.695312 119.15625 712.007812 114.109375 712.007812 C 108.832031 712.007812 103.324219 712.925781 98.507812 711.089844 C 95.296875 709.710938 92.3125 707.648438 89.558594 705.582031 C 72.808594 694.105469 55.144531 696.171875 36.328125 692.496094 C 21.644531 689.515625 4.207031 674.136719 -10.476562 684.234375 C -17.132812 688.597656 -20.34375 697.316406 -27.457031 700.761719 C -41.222656 707.648438 -58.890625 691.121094 -72.425781 698.695312 C -77.015625 701.449219 -79.769531 706.269531 -83.441406 710.402344 C -100.878906 729.683594 -133.230469 722.105469 -156.632812 733.355469 C -163.054688 736.566406 -169.480469 742.304688 -169.480469 749.421875 C -158.238281 747.355469 -146.765625 748.273438 -135.980469 752.175781 C -131.164062 754.242188 -126.34375 755.847656 -121.527344 757.226562 C -108.90625 759.980469 -95.828125 754.699219 -82.980469 753.324219 C -63.476562 751.257812 -43.976562 757.914062 -24.472656 758.375 C -7.953125 758.832031 8.566406 754.699219 24.855469 757.683594 C 31.28125 758.832031 37.476562 761.128906 43.898438 761.355469 C 69.140625 762.273438 88.183594 733.125 113.191406 734.730469 C 118.46875 734.960938 123.515625 736.796875 128.792969 736.566406 C 134.070312 736.339844 139.808594 733.582031 141.183594 728.535156 C 143.019531 721.878906 135.90625 716.367188 129.253906 714.304688 Z M 129.253906 714.304688 " fill-opacity="1" fill-rule="nonzero"/></g></g></g></g><path stroke-linecap="butt" transform="matrix(1.27284, 0, 0, 1.27284, 73.674741, 275.888181)" fill="none" stroke-linejoin="miter" d="M 104.970278 161.546987 L 74.913241 162.301942 C 74.710692 155.755928 74.560315 149.262086 74.45904 142.817347 C 74.360835 136.375676 74.207388 129.878765 74.007908 123.33582 L 45.611159 124.695353 C 45.512953 125.70196 45.460781 126.684016 45.460781 127.638451 C 45.460781 128.595955 45.460781 129.528908 45.460781 130.43424 C 45.460781 136.071853 45.687882 141.684914 46.142083 147.273424 C 46.593214 152.861934 47.071966 158.425892 47.57527 163.96223 C 45.562056 164.063504 43.524291 164.140228 41.458905 164.18933 C 39.39352 164.241502 37.355754 164.266053 35.342541 164.266053 C 31.414318 164.266053 27.464614 164.18933 23.487289 164.038953 C 19.509964 163.888576 15.55719 163.811853 11.628968 163.811853 C 11.831517 154.448567 12.083169 145.183487 12.383923 136.02275 C 12.687747 126.858944 12.939399 117.596933 13.138879 108.230578 C 13.341428 99.069842 13.467253 90.00731 13.516356 81.046054 C 13.568528 72.084797 13.642182 63.071368 13.743457 54.008837 L 38.966939 54.008837 C 39.774066 61.561458 40.326472 69.089527 40.627227 76.589977 C 40.93105 84.090426 41.382182 91.618495 41.98676 99.168047 C 46.820315 99.069842 51.604766 99.01767 56.337047 99.01767 C 61.069327 99.01767 65.902881 98.968567 70.834641 98.867293 L 72.344552 49.933307 C 73.756257 49.832032 75.140341 49.77986 76.499874 49.77986 C 77.859407 49.77986 79.243492 49.77986 80.652128 49.77986 C 84.681624 49.77986 88.631329 49.881135 92.510448 50.083684 C 96.386499 50.283164 100.287101 50.737365 104.215323 51.443217 C 104.718626 69.869034 104.918106 88.218128 104.819901 106.493568 C 104.718626 124.769007 104.767729 143.12117 104.970278 161.546987 Z M 252.527191 97.507759 C 252.527191 98.81819 252.527191 100.101 252.527191 101.359259 C 252.527191 102.617517 252.478088 103.851224 252.376814 105.06038 C 252.275539 106.066987 252.149714 107.828549 251.999336 110.345067 C 251.848959 112.864653 251.64641 115.758648 251.394758 119.03012 C 251.143107 122.301593 250.842352 125.751063 250.489426 129.375462 C 250.1365 132.99986 249.734471 136.348056 249.28027 139.420048 C 248.826069 142.492041 248.350386 145.134384 247.847083 147.350147 C 247.343779 149.56591 246.837407 150.925443 246.334103 151.428746 C 243.314283 154.448567 239.714435 156.688881 235.53763 158.149689 C 231.357757 159.607427 227.002954 160.589483 222.473223 161.092786 C 217.940423 161.59609 213.410692 161.798639 208.877892 161.697364 C 204.34816 161.59609 200.119184 161.546987 196.190962 161.546987 C 194.8836 161.546987 192.667837 161.522436 189.546742 161.470264 C 186.425647 161.421161 182.874902 161.344438 178.897577 161.246233 C 174.920252 161.144958 170.767999 160.966961 166.437748 160.715309 C 162.107497 160.463657 158.056518 160.110731 154.278673 159.659599 C 150.503897 159.205399 147.232424 158.652992 144.461186 157.996243 C 141.693017 157.342562 139.956006 156.510884 139.250154 155.504277 C 138.446096 154.396395 137.740244 153.190308 137.135666 151.879878 C 136.534157 150.572517 135.978682 149.314258 135.475378 148.105102 C 134.168017 144.781458 132.958861 141.233782 131.850979 137.455937 C 130.743098 133.681161 129.813214 129.805111 129.05519 125.827786 C 128.300235 121.850461 127.698726 117.897688 127.244525 113.969465 C 126.790324 110.044312 126.563224 106.318639 126.563224 102.795515 C 126.563224 100.880506 126.71667 98.388541 127.017425 95.316548 C 127.321248 92.247625 127.723277 88.92398 128.226581 85.348684 C 128.729884 81.776457 129.334462 78.124438 130.037246 74.398765 C 130.743098 70.673092 131.522605 67.199071 132.378834 63.976701 C 133.235064 60.7574 134.168017 57.961611 135.174624 55.595471 C 136.181231 53.229331 137.289112 51.642697 138.495199 50.838639 C 139.501806 50.132787 141.364642 49.479106 144.083709 48.874528 C 146.802775 48.26995 149.976042 47.742095 153.600441 47.287895 C 157.224839 46.836763 161.10089 46.431665 165.228592 46.081808 C 169.359363 45.728881 173.284516 45.425058 177.010189 45.173406 C 180.735863 44.921754 184.10861 44.746826 187.12843 44.645551 C 190.15132 44.544277 192.367083 44.495174 193.775719 44.495174 C 195.687658 44.495174 198.280899 44.596449 201.552371 44.795929 C 204.826912 44.998478 208.374588 45.326852 212.201536 45.777984 C 216.028483 46.232185 219.904534 46.784591 223.832756 47.441341 C 227.757909 48.095021 231.406859 48.874528 234.782675 49.77986 C 238.155422 50.688262 241.049417 51.694869 243.46466 52.80275 C 245.882972 53.910632 247.392882 55.116719 247.99746 56.427149 C 248.500763 57.53503 248.979516 59.118595 249.430647 61.18398 C 249.884848 63.249366 250.262326 65.587886 250.56308 68.205677 C 250.866904 70.826538 251.143107 73.594707 251.394758 76.513253 C 251.64641 79.434869 251.848959 82.227589 251.999336 84.897553 C 252.149714 87.564447 252.275539 90.00731 252.376814 92.223073 C 252.478088 94.435767 252.527191 96.200398 252.527191 97.507759 Z M 225.493044 102.491691 C 225.493044 100.478477 225.391769 98.339438 225.18922 96.074572 C 224.98974 93.806638 224.336059 91.817975 223.228178 90.108585 C 222.421051 88.899429 220.48456 87.941925 217.412568 87.236072 C 214.340575 86.533289 210.967828 86.029985 207.294327 85.726162 C 203.617757 85.425407 200.067012 85.250479 196.645162 85.198307 C 193.220244 85.149204 190.805001 85.121584 189.396365 85.121584 C 188.288483 85.121584 186.348924 85.222859 183.580755 85.425407 C 180.812586 85.627956 177.89097 85.953262 174.818978 86.407463 C 171.750054 86.858595 168.905162 87.41407 166.287371 88.067751 C 163.669579 88.721431 162.058394 89.504007 161.453816 90.409339 C 160.849238 91.115192 160.370486 92.447105 160.01756 94.411216 C 159.667702 96.375327 159.363879 98.489815 159.112227 100.754681 C 158.860576 103.019546 158.685647 105.186206 158.584372 107.248523 C 158.483098 109.313908 158.433995 110.799267 158.433995 111.7046 C 158.433995 112.511727 158.458547 113.717814 158.507649 115.328999 C 158.559821 116.940183 158.685647 118.60354 158.885127 120.31293 C 159.087676 122.02539 159.314776 123.636575 159.566428 125.146485 C 159.81808 126.656395 160.195557 127.764277 160.698861 128.470129 C 160.999615 128.973433 161.908017 129.427633 163.417927 129.829662 C 164.927837 130.231691 166.766123 130.609169 168.929714 130.962095 C 171.093305 131.315021 173.385791 131.591224 175.801034 131.793773 C 178.219345 131.993253 180.560934 132.171251 182.8258 132.321628 C 185.090665 132.472005 187.103879 132.57328 188.865441 132.622383 C 190.630072 132.674554 191.86071 132.699106 192.566563 132.699106 C 193.775719 132.699106 195.865656 132.597831 198.836374 132.398351 C 201.804023 132.195802 204.928187 131.867428 208.199659 131.416296 C 211.471132 130.962095 214.490953 130.409689 217.262191 129.752939 C 220.03036 129.099258 221.816473 128.319752 222.6236 127.414419 C 223.228178 126.708567 223.731482 125.223208 224.13351 122.958342 C 224.535539 120.690408 224.839363 118.226062 225.038843 115.556099 C 225.241392 112.889204 225.367218 110.320515 225.416321 107.853101 C 225.468492 105.385686 225.493044 103.599573 225.493044 102.491691 Z M 383.01782 86.180363 C 383.01782 88.396125 382.891995 91.06302 382.640343 94.184115 C 382.388691 97.305211 381.986662 100.478477 381.434256 103.700847 C 380.878781 106.923217 380.099274 109.943038 379.092667 112.763378 C 378.08606 115.58065 376.827802 117.796413 375.314822 119.407598 C 374.713313 120.11345 372.773754 120.791682 369.502281 121.448432 C 366.22774 122.102113 362.302587 122.755794 357.720684 123.409474 C 353.138781 124.066224 348.231572 124.695353 342.995988 125.299931 C 337.757336 125.90144 332.801024 126.432364 328.117847 126.883496 C 323.43467 127.337696 319.383691 127.715174 315.958772 128.015928 C 312.536922 128.319752 310.370262 128.470129 309.46493 128.470129 L 308.255774 159.8867 C 305.134679 160.08618 302.062686 160.110731 299.042865 159.960354 C 296.023045 159.809976 292.951052 159.733253 289.829957 159.733253 C 287.816743 159.733253 285.803529 159.785425 283.787246 159.8867 C 281.774033 159.984905 279.760819 160.138351 277.747605 160.337831 C 277.747605 150.873271 277.747605 141.509985 277.747605 132.244905 C 277.747605 122.982894 277.545056 113.619608 277.143027 104.155048 C 276.842272 95.59582 276.563 87.085695 276.311349 78.627742 C 276.059697 70.169789 275.835666 61.662732 275.633117 53.103505 C 286.003009 52.397652 296.449625 51.516871 306.972964 50.461161 C 317.493234 49.402383 327.992021 48.874528 338.463188 48.874528 C 340.276922 48.874528 343.146366 49.049457 347.071519 49.402383 C 350.999741 49.755309 355.127443 50.310784 359.457694 51.065739 C 363.787946 51.820695 367.789822 52.750578 371.463323 53.85846 C 375.139894 54.966341 377.582757 56.2246 378.788844 57.633236 C 379.595971 58.541637 380.274203 60.303199 380.829678 62.920991 C 381.382084 65.538783 381.811734 68.331503 382.112488 71.302221 C 382.413243 74.272939 382.640343 77.170003 382.793789 79.987275 C 382.944166 82.807616 383.01782 84.869932 383.01782 86.180363 Z M 340.728054 85.121584 C 340.728054 84.216252 340.678951 83.059267 340.577677 81.650632 C 340.476402 80.238927 340.301474 78.854842 340.049822 77.495309 C 339.79817 76.135776 339.420693 74.877517 338.917389 73.720533 C 338.414086 72.56048 337.757336 71.731871 336.953278 71.228567 C 336.449975 70.924744 335.642848 70.673092 334.538035 70.473612 C 333.430154 70.271063 332.270101 70.120686 331.064014 70.019411 C 329.854858 69.918137 328.697874 69.844483 327.589992 69.792311 C 326.482111 69.743208 325.674984 69.718657 325.17168 69.718657 C 321.446007 69.718657 317.720334 69.918137 313.994661 70.320166 C 310.268988 70.725264 306.494212 71.228567 302.667264 71.833145 C 302.971088 74.852966 303.146016 77.823684 303.198188 80.74223 C 303.247291 83.663845 303.271842 86.582392 303.271842 89.504007 C 303.271842 94.236287 303.422219 99.01767 303.726043 103.851224 C 305.033404 103.851224 307.301339 103.774501 310.520639 103.624124 C 313.743009 103.473747 317.115756 103.222095 320.641949 102.869169 C 324.165074 102.516243 327.488718 102.012939 330.609813 101.359259 C 333.730908 100.705578 335.845397 99.824797 336.953278 98.716915 C 338.767012 97.004456 339.847273 94.914519 340.200199 92.447105 C 340.553125 89.982759 340.728054 87.539896 340.728054 85.121584 Z M 515.926762 135.418172 C 515.926762 140.251727 514.769777 144.152328 512.45274 147.123046 C 510.135703 150.093764 506.86423 152.484456 502.635254 154.29819 C 499.112129 155.8081 494.680604 156.989636 489.343746 157.845865 C 484.006888 158.702095 478.47055 159.306673 472.731663 159.659599 C 466.989707 160.012525 461.352094 160.236557 455.815756 160.337831 C 450.276349 160.439106 445.645343 160.488209 441.91967 160.488209 C 435.576205 160.488209 429.309463 160.390003 423.116376 160.187454 C 416.923288 159.984905 410.656546 159.684151 404.313081 159.282122 C 404.613835 149.010434 404.313081 138.840022 403.40468 128.770884 C 410.9573 128.973433 418.482301 129.148361 425.985819 129.301807 C 433.486268 129.452185 441.014338 129.627113 448.56389 129.829662 C 451.485505 129.930937 454.428603 130.032211 457.399321 130.130417 C 460.370039 130.231691 463.365308 130.283863 466.388198 130.283863 C 466.891501 130.283863 467.646456 130.283863 468.653063 130.283863 C 469.65967 130.283863 470.71538 130.231691 471.823261 130.130417 C 472.931143 130.032211 473.96537 129.878765 474.919805 129.679285 C 475.877309 129.476736 476.607713 129.175982 477.111016 128.770884 C 477.513045 128.368855 477.764697 127.791897 477.865972 127.033873 C 477.967246 126.278918 478.016349 125.600686 478.016349 124.996108 C 478.016349 123.888226 477.865972 122.553245 477.562148 120.994231 C 477.261394 119.432149 476.807193 118.149339 476.205684 117.142732 C 476.10441 117.041458 475.776035 116.940183 475.223628 116.841978 C 474.668153 116.740703 474.039024 116.66398 473.333172 116.614877 C 472.630388 116.562706 471.976707 116.513603 471.372129 116.461431 C 470.767551 116.412329 470.414625 116.387777 470.313351 116.387777 C 463.868611 115.884474 457.451492 115.531547 451.055856 115.328999 C 444.663288 115.129518 438.2431 114.776592 431.801429 114.273289 C 428.879814 113.969465 425.884545 113.668711 422.812552 113.367956 C 419.743629 113.064133 416.898736 112.511727 414.280945 111.7046 C 411.761358 111.001816 409.622319 109.415183 407.860757 106.947768 C 406.099194 104.480354 404.690559 101.660013 403.63178 98.489815 C 402.57607 95.316548 401.818046 92.121799 401.366914 88.899429 C 400.912714 85.677059 400.685613 82.957993 400.685613 80.74223 C 400.685613 77.117831 401.03854 73.668361 401.744392 70.396889 C 402.450244 67.125416 403.582677 64.077975 405.14169 61.260703 C 406.703772 58.440363 408.692435 55.948397 411.107678 53.784806 C 413.525989 51.618146 416.493639 49.832032 420.019832 48.420327 C 426.059473 46.106359 432.528764 44.495174 439.427704 43.589842 C 446.323575 42.68144 452.946312 42.230309 459.289777 42.230309 C 466.738055 42.230309 474.091196 42.68144 481.339993 43.589842 C 488.588791 44.495174 495.837588 45.652158 503.089454 47.060794 C 502.98818 49.982409 502.911457 52.876404 502.862354 55.745848 C 502.813251 58.615291 502.785631 61.512355 502.785631 64.430901 C 502.785631 67.352517 502.939077 70.295614 503.239832 73.266332 C 503.540586 76.23705 503.844409 79.183217 504.145164 82.101763 C 494.579329 82.304312 485.041115 82.479241 475.524383 82.629618 C 466.01072 82.783064 456.417265 83.059267 446.753225 83.461296 C 445.544069 83.461296 443.908333 83.513468 441.842947 83.611674 C 439.78063 83.712948 437.791968 83.838774 435.87696 83.989151 C 433.96502 84.142597 432.304733 84.268423 430.893028 84.366629 C 429.484392 84.467903 428.778539 84.520075 428.778539 84.520075 C 428.275236 85.627956 427.974482 86.760389 427.873207 87.917373 C 427.771933 89.074358 427.72283 90.258962 427.72283 91.465049 C 427.72283 92.069627 427.747381 92.824582 427.796484 93.732984 C 427.848656 94.638316 428.075756 95.344168 428.477785 95.847472 C 428.579059 95.948746 429.435289 96.099124 431.043405 96.298604 C 432.65459 96.501153 434.443772 96.703702 436.407883 96.903182 C 438.368926 97.10573 440.231762 97.305211 441.996393 97.507759 C 443.757955 97.710308 444.838216 97.811583 445.243314 97.811583 C 448.56389 98.112337 452.46756 98.465264 456.948189 98.867293 C 461.428817 99.269322 466.01072 99.723522 470.690828 100.226826 C 475.374006 100.730129 479.879186 101.359259 484.209437 102.114214 C 488.539688 102.869169 492.314464 103.74995 495.536833 104.756557 C 498.45538 105.763164 501.149895 107.349797 503.617309 109.516457 C 506.084724 111.680048 508.223763 114.196566 510.037497 117.066009 C 511.848162 119.935453 513.284418 122.958342 514.340128 126.12854 C 515.398907 129.301807 515.926762 132.398351 515.926762 135.418172 Z M 515.926762 135.418172 " stroke="#000000" stroke-width="11.59995" stroke-opacity="1" stroke-miterlimit="4"/><g fill="#000000" fill-opacity="1"><g transform="translate(73.674741, 482.088332)"><g><path d="M 133.609375 -0.578125 L 95.359375 0.390625 C 95.097656 -7.941406 94.898438 -16.207031 94.765625 -24.40625 C 94.640625 -32.613281 94.453125 -40.882812 94.203125 -49.21875 L 58.0625 -47.484375 C 57.925781 -46.203125 57.859375 -44.953125 57.859375 -43.734375 C 57.859375 -42.515625 57.859375 -41.328125 57.859375 -40.171875 C 57.859375 -32.992188 58.144531 -25.847656 58.71875 -18.734375 C 59.300781 -11.628906 59.914062 -4.550781 60.5625 2.5 C 58 2.625 55.398438 2.71875 52.765625 2.78125 C 50.140625 2.851562 47.546875 2.890625 44.984375 2.890625 C 39.984375 2.890625 34.953125 2.789062 29.890625 2.59375 C 24.828125 2.40625 19.796875 2.3125 14.796875 2.3125 C 15.054688 -9.613281 15.378906 -21.40625 15.765625 -33.0625 C 16.148438 -44.726562 16.46875 -56.519531 16.71875 -68.4375 C 16.976562 -80.101562 17.140625 -91.640625 17.203125 -103.046875 C 17.265625 -114.453125 17.363281 -125.921875 17.5 -137.453125 L 49.59375 -137.453125 C 50.625 -127.835938 51.332031 -118.253906 51.71875 -108.703125 C 52.101562 -99.160156 52.675781 -89.582031 53.4375 -79.96875 C 59.59375 -80.101562 65.679688 -80.171875 71.703125 -80.171875 C 77.734375 -80.171875 83.882812 -80.234375 90.15625 -80.359375 L 92.078125 -142.640625 C 93.878906 -142.773438 95.644531 -142.84375 97.375 -142.84375 C 99.101562 -142.84375 100.863281 -142.84375 102.65625 -142.84375 C 107.78125 -142.84375 112.8125 -142.710938 117.75 -142.453125 C 122.6875 -142.191406 127.65625 -141.613281 132.65625 -140.71875 C 133.289062 -117.269531 133.539062 -93.910156 133.40625 -70.640625 C 133.28125 -47.378906 133.347656 -24.023438 133.609375 -0.578125 Z M 133.609375 -0.578125 "/></g></g></g><g fill="#000000" fill-opacity="1"><g transform="translate(223.044439, 482.088332)"><g><path d="M 172.0625 -82.09375 C 172.0625 -80.425781 172.0625 -78.789062 172.0625 -77.1875 C 172.0625 -75.582031 172 -74.007812 171.875 -72.46875 C 171.738281 -71.1875 171.570312 -68.941406 171.375 -65.734375 C 171.1875 -62.535156 170.929688 -58.851562 170.609375 -54.6875 C 170.296875 -50.53125 169.914062 -46.144531 169.46875 -41.53125 C 169.019531 -36.914062 168.503906 -32.648438 167.921875 -28.734375 C 167.347656 -24.828125 166.738281 -21.460938 166.09375 -18.640625 C 165.457031 -15.828125 164.816406 -14.097656 164.171875 -13.453125 C 160.328125 -9.609375 155.742188 -6.753906 150.421875 -4.890625 C 145.109375 -3.035156 139.566406 -1.785156 133.796875 -1.140625 C 128.035156 -0.503906 122.269531 -0.25 116.5 -0.375 C 110.726562 -0.507812 105.347656 -0.578125 100.359375 -0.578125 C 98.691406 -0.578125 95.867188 -0.609375 91.890625 -0.671875 C 87.921875 -0.734375 83.40625 -0.828125 78.34375 -0.953125 C 73.28125 -1.085938 67.992188 -1.3125 62.484375 -1.625 C 56.972656 -1.945312 51.8125 -2.394531 47 -2.96875 C 42.195312 -3.550781 38.03125 -4.257812 34.5 -5.09375 C 30.976562 -5.925781 28.769531 -6.984375 27.875 -8.265625 C 26.851562 -9.671875 25.957031 -11.207031 25.1875 -12.875 C 24.414062 -14.539062 23.707031 -16.144531 23.0625 -17.6875 C 21.394531 -21.914062 19.859375 -26.429688 18.453125 -31.234375 C 17.046875 -36.046875 15.859375 -40.984375 14.890625 -46.046875 C 13.929688 -51.109375 13.164062 -56.132812 12.59375 -61.125 C 12.019531 -66.125 11.734375 -70.867188 11.734375 -75.359375 C 11.734375 -77.796875 11.921875 -80.96875 12.296875 -84.875 C 12.679688 -88.78125 13.191406 -93.007812 13.828125 -97.5625 C 14.472656 -102.113281 15.242188 -106.757812 16.140625 -111.5 C 17.046875 -116.238281 18.039062 -120.660156 19.125 -124.765625 C 20.21875 -128.867188 21.40625 -132.425781 22.6875 -135.4375 C 23.96875 -138.445312 25.378906 -140.46875 26.921875 -141.5 C 28.203125 -142.394531 30.570312 -143.222656 34.03125 -143.984375 C 37.488281 -144.753906 41.523438 -145.425781 46.140625 -146 C 50.753906 -146.582031 55.6875 -147.097656 60.9375 -147.546875 C 66.195312 -147.992188 71.195312 -148.378906 75.9375 -148.703125 C 80.675781 -149.023438 84.96875 -149.25 88.8125 -149.375 C 92.65625 -149.5 95.476562 -149.5625 97.28125 -149.5625 C 99.707031 -149.5625 103.003906 -149.429688 107.171875 -149.171875 C 111.335938 -148.921875 115.851562 -148.503906 120.71875 -147.921875 C 125.59375 -147.347656 130.53125 -146.644531 135.53125 -145.8125 C 140.53125 -144.976562 145.175781 -143.984375 149.46875 -142.828125 C 153.757812 -141.679688 157.441406 -140.398438 160.515625 -138.984375 C 163.597656 -137.578125 165.523438 -136.039062 166.296875 -134.375 C 166.929688 -132.96875 167.535156 -130.953125 168.109375 -128.328125 C 168.691406 -125.703125 169.175781 -122.722656 169.5625 -119.390625 C 169.945312 -116.054688 170.296875 -112.53125 170.609375 -108.8125 C 170.929688 -105.09375 171.1875 -101.535156 171.375 -98.140625 C 171.570312 -94.742188 171.734375 -91.632812 171.859375 -88.8125 C 171.992188 -86 172.0625 -83.757812 172.0625 -82.09375 Z M 137.640625 -75.75 C 137.640625 -78.3125 137.507812 -81.03125 137.25 -83.90625 C 137 -86.789062 136.171875 -89.328125 134.765625 -91.515625 C 133.734375 -93.046875 131.265625 -94.257812 127.359375 -95.15625 C 123.453125 -96.050781 119.160156 -96.691406 114.484375 -97.078125 C 109.804688 -97.460938 105.285156 -97.6875 100.921875 -97.75 C 96.566406 -97.820312 93.492188 -97.859375 91.703125 -97.859375 C 90.296875 -97.859375 87.828125 -97.726562 84.296875 -97.46875 C 80.773438 -97.207031 77.054688 -96.789062 73.140625 -96.21875 C 69.234375 -95.644531 65.613281 -94.941406 62.28125 -94.109375 C 58.957031 -93.273438 56.910156 -92.28125 56.140625 -91.125 C 55.367188 -90.226562 54.757812 -88.53125 54.3125 -86.03125 C 53.863281 -83.53125 53.476562 -80.835938 53.15625 -77.953125 C 52.832031 -75.066406 52.609375 -72.3125 52.484375 -69.6875 C 52.359375 -67.0625 52.296875 -65.171875 52.296875 -64.015625 C 52.296875 -62.992188 52.328125 -61.457031 52.390625 -59.40625 C 52.453125 -57.351562 52.609375 -55.238281 52.859375 -53.0625 C 53.117188 -50.882812 53.410156 -48.832031 53.734375 -46.90625 C 54.054688 -44.988281 54.535156 -43.578125 55.171875 -42.671875 C 55.554688 -42.035156 56.707031 -41.457031 58.625 -40.9375 C 60.550781 -40.425781 62.890625 -39.945312 65.640625 -39.5 C 68.398438 -39.050781 71.316406 -38.695312 74.390625 -38.4375 C 77.472656 -38.1875 80.453125 -37.960938 83.328125 -37.765625 C 86.210938 -37.578125 88.773438 -37.453125 91.015625 -37.390625 C 93.265625 -37.328125 94.835938 -37.296875 95.734375 -37.296875 C 97.273438 -37.296875 99.9375 -37.421875 103.71875 -37.671875 C 107.5 -37.929688 111.472656 -38.347656 115.640625 -38.921875 C 119.804688 -39.503906 123.648438 -40.210938 127.171875 -41.046875 C 130.691406 -41.878906 132.96875 -42.875 134 -44.03125 C 134.769531 -44.925781 135.410156 -46.8125 135.921875 -49.6875 C 136.429688 -52.570312 136.8125 -55.710938 137.0625 -59.109375 C 137.320312 -62.503906 137.484375 -65.769531 137.546875 -68.90625 C 137.609375 -72.050781 137.640625 -74.332031 137.640625 -75.75 Z M 137.640625 -75.75 "/></g></g></g><g fill="#000000" fill-opacity="1"><g transform="translate(406.824917, 482.088332)"><g><path d="M 154.375 -96.5 C 154.375 -93.6875 154.210938 -90.289062 153.890625 -86.3125 C 153.566406 -82.34375 153.050781 -78.304688 152.34375 -74.203125 C 151.644531 -70.109375 150.65625 -66.265625 149.375 -62.671875 C 148.09375 -59.085938 146.488281 -56.269531 144.5625 -54.21875 C 143.800781 -53.320312 141.335938 -52.457031 137.171875 -51.625 C 133.003906 -50.789062 128.003906 -49.957031 122.171875 -49.125 C 116.335938 -48.289062 110.085938 -47.488281 103.421875 -46.71875 C 96.765625 -45.945312 90.453125 -45.269531 84.484375 -44.6875 C 78.523438 -44.113281 73.367188 -43.632812 69.015625 -43.25 C 64.660156 -42.863281 61.90625 -42.671875 60.75 -42.671875 L 59.21875 -2.6875 C 55.238281 -2.4375 51.328125 -2.40625 47.484375 -2.59375 C 43.640625 -2.789062 39.726562 -2.890625 35.75 -2.890625 C 33.1875 -2.890625 30.625 -2.820312 28.0625 -2.6875 C 25.5 -2.5625 22.9375 -2.367188 20.375 -2.109375 C 20.375 -14.160156 20.375 -26.082031 20.375 -37.875 C 20.375 -49.664062 20.117188 -61.582031 19.609375 -73.625 C 19.222656 -84.519531 18.867188 -95.347656 18.546875 -106.109375 C 18.234375 -116.878906 17.945312 -127.710938 17.6875 -138.609375 C 30.882812 -139.503906 44.179688 -140.625 57.578125 -141.96875 C 70.972656 -143.3125 84.332031 -143.984375 97.65625 -143.984375 C 99.96875 -143.984375 103.617188 -143.757812 108.609375 -143.3125 C 113.609375 -142.863281 118.863281 -142.160156 124.375 -141.203125 C 129.894531 -140.242188 134.992188 -139.054688 139.671875 -137.640625 C 144.347656 -136.234375 147.453125 -134.632812 148.984375 -132.84375 C 150.015625 -131.6875 150.878906 -129.441406 151.578125 -126.109375 C 152.285156 -122.773438 152.832031 -119.21875 153.21875 -115.4375 C 153.601562 -111.65625 153.890625 -107.96875 154.078125 -104.375 C 154.273438 -100.789062 154.375 -98.164062 154.375 -96.5 Z M 100.546875 -97.859375 C 100.546875 -99.003906 100.476562 -100.472656 100.34375 -102.265625 C 100.21875 -104.066406 99.992188 -105.832031 99.671875 -107.5625 C 99.359375 -109.289062 98.878906 -110.890625 98.234375 -112.359375 C 97.597656 -113.835938 96.765625 -114.898438 95.734375 -115.546875 C 95.097656 -115.921875 94.070312 -116.238281 92.65625 -116.5 C 91.25 -116.757812 89.773438 -116.953125 88.234375 -117.078125 C 86.703125 -117.203125 85.226562 -117.296875 83.8125 -117.359375 C 82.40625 -117.429688 81.382812 -117.46875 80.75 -117.46875 C 76 -117.46875 71.253906 -117.207031 66.515625 -116.6875 C 61.773438 -116.175781 56.96875 -115.535156 52.09375 -114.765625 C 52.476562 -110.921875 52.703125 -107.140625 52.765625 -103.421875 C 52.835938 -99.710938 52.875 -96 52.875 -92.28125 C 52.875 -86.257812 53.0625 -80.171875 53.4375 -74.015625 C 55.101562 -74.015625 57.988281 -74.109375 62.09375 -74.296875 C 66.195312 -74.492188 70.488281 -74.816406 74.96875 -75.265625 C 79.457031 -75.710938 83.6875 -76.351562 87.65625 -77.1875 C 91.632812 -78.019531 94.328125 -79.140625 95.734375 -80.546875 C 98.046875 -82.722656 99.425781 -85.378906 99.875 -88.515625 C 100.320312 -91.660156 100.546875 -94.773438 100.546875 -97.859375 Z M 100.546875 -97.859375 "/></g></g></g><g fill="#000000" fill-opacity="1"><g transform="translate(571.958211, 482.088332)"><g><path d="M 158.40625 -33.828125 C 158.40625 -27.679688 156.929688 -22.71875 153.984375 -18.9375 C 151.035156 -15.15625 146.875 -12.109375 141.5 -9.796875 C 137.007812 -7.878906 131.367188 -6.375 124.578125 -5.28125 C 117.785156 -4.195312 110.734375 -3.429688 103.421875 -2.984375 C 96.117188 -2.535156 88.941406 -2.242188 81.890625 -2.109375 C 74.847656 -1.984375 68.953125 -1.921875 64.203125 -1.921875 C 56.128906 -1.921875 48.148438 -2.046875 40.265625 -2.296875 C 32.390625 -2.554688 24.414062 -2.941406 16.34375 -3.453125 C 16.726562 -16.523438 16.34375 -29.472656 15.1875 -42.296875 C 24.800781 -42.035156 34.378906 -41.804688 43.921875 -41.609375 C 53.472656 -41.421875 63.054688 -41.203125 72.671875 -40.953125 C 76.390625 -40.816406 80.140625 -40.6875 83.921875 -40.5625 C 87.703125 -40.4375 91.515625 -40.375 95.359375 -40.375 C 95.992188 -40.375 96.953125 -40.375 98.234375 -40.375 C 99.515625 -40.375 100.859375 -40.4375 102.265625 -40.5625 C 103.679688 -40.6875 105 -40.878906 106.21875 -41.140625 C 107.4375 -41.398438 108.363281 -41.785156 109 -42.296875 C 109.507812 -42.804688 109.828125 -43.539062 109.953125 -44.5 C 110.085938 -45.46875 110.15625 -46.332031 110.15625 -47.09375 C 110.15625 -48.507812 109.960938 -50.207031 109.578125 -52.1875 C 109.191406 -54.175781 108.613281 -55.8125 107.84375 -57.09375 C 107.71875 -57.226562 107.300781 -57.359375 106.59375 -57.484375 C 105.894531 -57.609375 105.09375 -57.703125 104.1875 -57.765625 C 103.289062 -57.828125 102.457031 -57.890625 101.6875 -57.953125 C 100.925781 -58.023438 100.484375 -58.0625 100.359375 -58.0625 C 92.148438 -58.695312 83.976562 -59.140625 75.84375 -59.390625 C 67.707031 -59.648438 59.535156 -60.101562 51.328125 -60.75 C 47.609375 -61.132812 43.796875 -61.519531 39.890625 -61.90625 C 35.984375 -62.289062 32.363281 -62.992188 29.03125 -64.015625 C 25.820312 -64.910156 23.097656 -66.925781 20.859375 -70.0625 C 18.617188 -73.207031 16.820312 -76.796875 15.46875 -80.828125 C 14.125 -84.867188 13.164062 -88.941406 12.59375 -93.046875 C 12.019531 -97.148438 11.734375 -100.609375 11.734375 -103.421875 C 11.734375 -108.035156 12.179688 -112.425781 13.078125 -116.59375 C 13.972656 -120.757812 15.410156 -124.632812 17.390625 -128.21875 C 19.378906 -131.8125 21.910156 -134.984375 24.984375 -137.734375 C 28.066406 -140.492188 31.847656 -142.769531 36.328125 -144.5625 C 44.023438 -147.507812 52.257812 -149.5625 61.03125 -150.71875 C 69.8125 -151.875 78.238281 -152.453125 86.3125 -152.453125 C 95.800781 -152.453125 105.160156 -151.875 114.390625 -150.71875 C 123.617188 -149.5625 132.84375 -148.085938 142.0625 -146.296875 C 141.9375 -142.578125 141.84375 -138.890625 141.78125 -135.234375 C 141.71875 -131.585938 141.6875 -127.90625 141.6875 -124.1875 C 141.6875 -120.46875 141.878906 -116.71875 142.265625 -112.9375 C 142.648438 -109.15625 143.035156 -105.410156 143.421875 -101.703125 C 131.242188 -101.441406 119.097656 -101.210938 106.984375 -101.015625 C 94.867188 -100.828125 82.660156 -100.476562 70.359375 -99.96875 C 68.828125 -99.96875 66.742188 -99.898438 64.109375 -99.765625 C 61.484375 -99.640625 58.953125 -99.476562 56.515625 -99.28125 C 54.085938 -99.09375 51.972656 -98.9375 50.171875 -98.8125 C 48.378906 -98.6875 47.484375 -98.625 47.484375 -98.625 C 46.835938 -97.207031 46.453125 -95.757812 46.328125 -94.28125 C 46.203125 -92.8125 46.140625 -91.3125 46.140625 -89.78125 C 46.140625 -89.007812 46.171875 -88.046875 46.234375 -86.890625 C 46.296875 -85.742188 46.582031 -84.847656 47.09375 -84.203125 C 47.226562 -84.078125 48.316406 -83.882812 50.359375 -83.625 C 52.410156 -83.375 54.6875 -83.117188 57.1875 -82.859375 C 59.6875 -82.597656 62.054688 -82.335938 64.296875 -82.078125 C 66.546875 -81.828125 67.925781 -81.703125 68.4375 -81.703125 C 72.664062 -81.316406 77.628906 -80.867188 83.328125 -80.359375 C 89.035156 -79.847656 94.867188 -79.269531 100.828125 -78.625 C 106.785156 -77.988281 112.519531 -77.1875 118.03125 -76.21875 C 123.550781 -75.257812 128.359375 -74.140625 132.453125 -72.859375 C 136.171875 -71.578125 139.597656 -69.554688 142.734375 -66.796875 C 145.878906 -64.046875 148.601562 -60.84375 150.90625 -57.1875 C 153.21875 -53.539062 155.046875 -49.695312 156.390625 -45.65625 C 157.734375 -41.625 158.40625 -37.679688 158.40625 -33.828125 Z M 158.40625 -33.828125 "/></g></g></g><path stroke-linecap="butt" transform="matrix(0.66466, 0, 0, 0.66466, 73.644984, 259.16945)" fill="none" stroke-linejoin="miter" d="M 201.018435 311.129569 L 143.464342 312.581204 C 143.076456 300.045425 142.78848 287.609556 142.594536 275.267721 C 142.400593 262.925885 142.112617 250.490017 141.724731 237.954238 L 87.35013 240.557777 C 87.156186 242.485455 87.062153 244.366115 87.062153 246.199759 C 87.062153 248.027527 87.062153 249.814154 87.062153 251.547888 C 87.062153 262.349933 87.497056 273.099084 88.360985 283.801218 C 89.23079 294.503353 90.147612 305.152594 91.111451 315.760696 C 87.256097 315.954639 83.347849 316.095688 79.398461 316.195598 C 75.443197 316.289631 71.540826 316.336648 67.679595 316.336648 C 60.162829 316.336648 52.59317 316.195598 44.976494 315.907622 C 37.359819 315.613769 29.790159 315.472719 22.273394 315.472719 C 22.655403 297.535918 23.137322 279.798938 23.719152 262.250023 C 24.295104 244.701108 24.777023 226.964127 25.16491 209.033203 C 25.546919 191.484288 25.787878 174.129317 25.887788 156.968288 C 25.981822 139.80726 26.128748 122.546321 26.322691 105.197227 L 74.626285 105.197227 C 76.166076 119.654805 77.223947 134.071245 77.805777 148.434791 C 78.381729 162.798336 79.251535 177.214776 80.409316 191.678232 C 89.665693 191.484288 98.82216 191.390255 107.884593 191.390255 C 116.947027 191.390255 126.203403 191.290345 135.653723 191.096402 L 138.545239 97.386608 C 141.242812 97.192665 143.893368 97.098632 146.496907 97.098632 C 149.100447 97.098632 151.751003 97.098632 154.454453 97.098632 C 162.165161 97.098632 169.734821 97.286698 177.157553 97.674584 C 184.580286 98.06247 192.055912 98.926399 199.572677 100.278124 C 200.536516 135.564019 200.924402 170.708865 200.730459 205.706785 C 200.536516 240.704704 200.636426 275.843673 201.018435 311.129569 Z M 201.018435 311.129569 " stroke="#000000" stroke-width="22.214174" stroke-opacity="1" stroke-miterlimit="4"/><path stroke-linecap="butt" transform="matrix(0.66466, 0, 0, 0.66466, 73.644984, 259.16945)" fill="none" stroke-linejoin="miter" d="M 483.617084 188.492863 C 483.617084 191.002369 483.617084 193.458982 483.617084 195.868579 C 483.617084 198.284052 483.523051 200.640755 483.329108 202.956318 C 483.135165 204.883996 482.894205 208.257431 482.606229 213.082501 C 482.318253 217.901694 481.930367 223.443766 481.448447 229.714593 C 480.966528 235.979544 480.390576 242.585365 479.714713 249.526178 C 479.038851 256.466991 478.268955 262.878869 477.39915 268.76181 C 476.529344 274.638875 475.618399 279.699027 474.654561 283.942268 C 473.684845 288.185509 472.721007 290.789048 471.757168 291.752887 C 465.974136 297.535918 459.08034 301.826175 451.081655 304.623658 C 443.077093 307.421141 434.737538 309.301802 426.057114 310.26564 C 417.382567 311.229479 408.708019 311.611488 400.027595 311.423422 C 391.353048 311.229479 383.254453 311.129569 375.73181 311.129569 C 373.228181 311.129569 368.98494 311.082552 363.007965 310.988519 C 357.030991 310.888609 350.231227 310.747559 342.614551 310.553616 C 334.997876 310.359673 327.046207 310.024681 318.753669 309.542761 C 310.461131 309.060842 302.697529 308.38498 295.46874 307.515174 C 288.23995 306.651245 281.969122 305.587497 276.66801 304.335682 C 271.366898 303.083867 268.040479 301.491183 266.688754 299.563506 C 265.148964 297.441885 263.797239 295.126322 262.639457 292.622692 C 261.481675 290.113186 260.423804 287.703589 259.459965 285.388026 C 256.950458 279.029042 254.640772 272.229278 252.519152 265.000489 C 250.397532 257.765823 248.610904 250.34309 247.165146 242.726414 C 245.719388 235.109739 244.561606 227.54008 243.697678 220.023314 C 242.827872 212.500671 242.39297 205.365915 242.39297 198.619045 C 242.39297 194.957634 242.680946 190.17958 243.262775 184.302516 C 243.838727 178.419574 244.608623 172.054713 245.572462 165.21381 C 246.542177 158.36703 247.694082 151.3792 249.045807 144.244444 C 250.397532 137.109687 251.890306 130.45685 253.530007 124.285932 C 255.169708 118.115015 256.950458 112.761009 258.878136 108.229792 C 260.805813 103.698575 262.927433 100.66601 265.242997 99.120342 C 267.170674 97.768617 270.738052 96.516802 275.945131 95.359021 C 281.15221 94.201239 287.223218 93.190384 294.169908 92.326455 C 301.110722 91.45665 308.533454 90.686754 316.438106 90.010892 C 324.342758 89.335029 331.8654 88.759077 339.000157 88.271281 C 346.134913 87.789361 352.593807 87.454369 358.376839 87.260426 C 364.165747 87.066483 368.403111 86.97245 371.10656 86.97245 C 374.767972 86.97245 379.734091 87.166393 385.999042 87.548402 C 392.26987 87.936288 399.063756 88.565134 406.392456 89.429062 C 413.721155 90.298868 421.143888 91.35674 428.660654 92.614431 C 436.183296 93.866246 443.171126 95.359021 449.63002 97.098632 C 456.094791 98.832366 461.636863 100.760043 466.262113 102.881663 C 470.893239 105.003284 473.784755 107.31297 474.942537 109.822476 C 475.906376 111.944097 476.823198 114.982539 477.687126 118.931927 C 478.556932 122.887191 479.279811 127.371391 479.855763 132.384527 C 480.437592 137.397663 480.966528 142.698776 481.448447 148.293741 C 481.930367 153.882829 482.318253 159.236835 482.606229 164.344004 C 482.894205 169.451173 483.135165 174.129317 483.329108 178.372557 C 483.523051 182.615798 483.617084 185.989233 483.617084 188.492863 Z M 431.846023 198.037215 C 431.846023 194.181861 431.652079 190.085547 431.264193 185.748273 C 430.882184 181.411 429.624492 177.602662 427.508749 174.32326 C 425.963081 172.007697 422.248776 170.174052 416.371712 168.828205 C 410.48877 167.47648 404.029876 166.512641 396.989153 165.936689 C 389.954306 165.354859 383.154543 165.019867 376.601616 164.919957 C 370.042812 164.825924 365.417562 164.778907 362.714112 164.778907 C 360.598369 164.778907 356.884064 164.97285 351.582952 165.354859 C 346.275963 165.742746 340.686874 166.365715 334.803933 167.23552 C 328.926868 168.105326 323.478829 169.163197 318.465693 170.415012 C 313.452557 171.672704 310.367098 173.165478 309.209317 174.899212 C 308.051535 176.250937 307.134713 178.80746 306.45885 182.568782 C 305.782988 186.324226 305.207036 190.373523 304.725116 194.716674 C 304.243197 199.053948 303.902327 203.197278 303.714261 207.152543 C 303.520318 211.10193 303.420408 213.946429 303.420408 215.68604 C 303.420408 217.225831 303.473301 219.541395 303.567335 222.626854 C 303.661368 225.712312 303.902327 228.891804 304.290213 232.171206 C 304.6781 235.450608 305.107125 238.536067 305.594922 241.427583 C 306.076841 244.319099 306.79972 246.440719 307.763559 247.786567 C 308.339511 248.750405 310.073245 249.620211 312.964761 250.390106 C 315.862154 251.165879 319.376638 251.888758 323.525846 252.558743 C 327.669176 253.234606 332.059343 253.769419 336.684593 254.151428 C 341.31572 254.539314 345.794043 254.874307 350.137194 255.162283 C 354.474468 255.456136 358.329822 255.644202 361.703257 255.744112 C 365.076692 255.838145 367.439272 255.885162 368.790997 255.885162 C 371.10656 255.885162 375.102964 255.697096 380.791963 255.30921 C 386.480961 254.921323 392.457936 254.298354 398.728764 253.428549 C 404.993715 252.558743 410.776746 251.500872 416.083735 250.249057 C 421.384848 248.991365 424.805299 247.498591 426.350967 245.764857 C 427.508749 244.413132 428.472587 241.568633 429.242483 237.231359 C 430.012378 232.894085 430.588331 228.168925 430.976217 223.061756 C 431.364103 217.94871 431.605063 213.029607 431.699096 208.310324 C 431.799006 203.585164 431.846023 200.158836 431.846023 198.037215 Z M 431.846023 198.037215 " stroke="#000000" stroke-width="22.214174" stroke-opacity="1" stroke-miterlimit="4"/><path stroke-linecap="butt" transform="matrix(0.66466, 0, 0, 0.66466, 73.644984, 259.16945)" fill="none" stroke-linejoin="miter" d="M 733.521623 166.800617 C 733.521623 171.043858 733.280664 176.156904 732.798744 182.133879 C 732.316825 188.110853 731.546929 194.181861 730.489058 200.352779 C 729.425309 206.523697 727.932535 212.306728 726.004858 217.707751 C 724.07718 223.108773 721.667584 227.352013 718.770191 230.437472 C 717.618286 231.78332 713.903982 233.088028 707.639031 234.339843 C 701.368203 235.591658 693.851437 236.843473 685.07698 238.101165 C 676.302523 239.352979 666.905096 240.557777 656.872947 241.715559 C 646.846675 242.873341 637.349339 243.884196 628.386815 244.754002 C 619.418415 245.61793 611.66069 246.340809 605.101886 246.922638 C 598.548959 247.498591 594.399751 247.786567 592.666017 247.786567 L 590.350454 307.950077 C 584.373479 308.337963 578.490537 308.38498 572.707506 308.097003 C 566.924474 307.80315 561.041533 307.662101 555.064558 307.662101 C 551.209204 307.662101 547.347972 307.756134 543.492618 307.950077 C 539.637264 308.14402 535.781909 308.431996 531.926555 308.819882 C 531.926555 290.695015 531.926555 272.758214 531.926555 255.021233 C 531.926555 237.278375 531.538669 219.347452 530.768773 201.222584 C 530.186944 184.831451 529.658008 168.540228 529.176089 152.343039 C 528.694169 136.145849 528.259267 119.848749 527.877257 103.457616 C 547.735858 102.111768 567.741386 100.42505 587.893841 98.397463 C 608.040418 96.375753 628.145856 95.359021 648.1984 95.359021 C 651.671745 95.359021 657.1668 95.69989 664.683566 96.375753 C 672.206209 97.045738 680.11086 98.109487 688.403399 99.555245 C 696.695937 101.001003 704.359629 102.781753 711.394475 104.903373 C 718.435198 107.024994 723.113342 109.43459 725.423028 112.13804 C 726.968696 113.871774 728.267527 117.245209 729.331276 122.258345 C 730.389148 127.271481 731.211937 132.625487 731.787889 138.314485 C 732.369719 144.003484 732.798744 149.545556 733.092597 154.940701 C 733.380574 160.341723 733.521623 164.296988 733.521623 166.800617 Z M 652.535674 164.778907 C 652.535674 163.045173 652.441641 160.823643 652.247697 158.12607 C 652.053754 155.428497 651.718762 152.772064 651.236842 150.168525 C 650.754923 147.570862 650.032044 145.155389 649.068206 142.939735 C 648.104367 140.724082 646.846675 139.131397 645.306884 138.167559 C 644.343046 137.591607 642.797378 137.109687 640.675757 136.721801 C 638.560014 136.333915 636.338484 136.045939 634.028797 135.851995 C 631.713234 135.663929 629.491703 135.517003 627.37596 135.417093 C 625.25434 135.32306 623.708672 135.276043 622.744833 135.276043 C 615.610077 135.276043 608.475321 135.663929 601.340564 136.433825 C 594.205808 137.20372 586.977019 138.167559 579.648319 139.325341 C 580.230148 145.108372 580.565141 150.797371 580.659174 156.392336 C 580.759084 161.981424 580.806101 167.57639 580.806101 173.165478 C 580.806101 182.227912 581.094077 191.390255 581.675906 200.640755 C 584.179536 200.640755 588.516809 200.499705 594.687727 200.211729 C 600.858645 199.917876 607.317539 199.435957 614.070286 198.765971 C 620.817156 198.090109 627.182017 197.12627 633.158992 195.868579 C 639.135966 194.616764 643.185264 192.930046 645.306884 190.808426 C 648.774352 187.529024 650.848956 183.53262 651.524819 178.80746 C 652.200681 174.0823 652.535674 169.404157 652.535674 164.778907 Z M 652.535674 164.778907 " stroke="#000000" stroke-width="22.214174" stroke-opacity="1" stroke-miterlimit="4"/><path stroke-linecap="butt" transform="matrix(0.66466, 0, 0, 0.66466, 73.644984, 259.16945)" fill="none" stroke-linejoin="miter" d="M 988.069043 261.092241 C 988.069043 270.348618 985.847513 277.824244 981.416206 283.507365 C 976.979022 289.196364 970.714071 293.780474 962.615477 297.247942 C 955.862729 300.139458 947.382125 302.408005 937.16191 304.047706 C 926.941695 305.687407 916.333593 306.839312 905.343482 307.515174 C 894.353372 308.191036 883.557204 308.625939 872.949103 308.819882 C 862.346878 309.013825 853.472511 309.107858 846.337754 309.107858 C 834.189862 309.107858 822.188896 308.913915 810.32898 308.531906 C 798.469064 308.14402 786.468098 307.56219 774.320205 306.792295 C 774.896158 287.127637 774.320205 267.651045 772.586471 248.368396 C 787.04405 248.750405 801.460489 249.091275 815.824035 249.379251 C 830.193458 249.667228 844.60402 250.008097 859.067476 250.390106 C 864.656565 250.58405 870.298547 250.777993 875.987545 250.971936 C 881.676543 251.165879 887.412559 251.259912 893.19559 251.259912 C 894.159429 251.259912 895.605186 251.259912 897.532864 251.259912 C 899.460541 251.259912 901.488128 251.165879 903.609748 250.971936 C 905.731369 250.777993 907.706062 250.490017 909.539707 250.10213 C 911.367474 249.720121 912.766215 249.138292 913.730054 248.368396 C 914.505826 247.598501 914.987745 246.487736 915.175811 245.041978 C 915.369755 243.59622 915.469665 242.291512 915.469665 241.13373 C 915.469665 239.017987 915.175811 236.461463 914.599859 233.470038 C 914.023907 230.484489 913.154101 228.021999 911.99632 226.094322 C 911.802376 225.906256 911.179408 225.712312 910.115659 225.518369 C 909.057787 225.324426 907.852989 225.1775 906.501264 225.083467 C 905.149539 224.989433 903.897725 224.889523 902.739943 224.79549 C 901.582161 224.69558 900.912176 224.648564 900.718233 224.648564 C 888.376397 223.684725 876.081578 223.008863 863.839653 222.626854 C 851.59185 222.238967 839.302908 221.563105 826.961073 220.599266 C 821.366107 220.023314 815.630092 219.441485 809.753027 218.865532 C 803.870086 218.28958 798.422047 217.225831 793.408911 215.68604 C 788.589718 214.334315 784.493404 211.295873 781.114092 206.570713 C 777.740657 201.845553 775.043084 196.450408 773.015497 190.373523 C 770.993787 184.302516 769.548029 178.178614 768.678223 172.007697 C 767.814295 165.836779 767.379392 160.6297 767.379392 156.392336 C 767.379392 149.445646 768.055254 142.845702 769.401102 136.574874 C 770.752827 130.309924 772.921464 124.479875 775.91289 119.078853 C 778.898439 113.677831 782.706776 108.905654 787.337903 104.762324 C 791.963153 100.613116 797.652152 97.192665 804.399022 94.495092 C 815.970962 90.057908 828.359814 86.97245 841.565578 85.238715 C 854.777219 83.499104 867.454047 82.635176 879.60194 82.635176 C 893.871452 82.635176 907.947022 83.499104 921.828649 85.238715 C 935.716152 86.97245 949.597779 89.188103 963.479405 91.891553 C 963.291339 97.480641 963.144412 103.022713 963.050379 108.523645 C 962.950469 114.018701 962.903453 119.560772 962.903453 125.149861 C 962.903453 130.744826 963.191429 136.386808 963.773258 142.06993 C 964.349211 147.758928 964.925163 153.40091 965.506992 158.995876 C 947.188182 159.377885 928.916388 159.718755 910.697488 160.006731 C 892.472711 160.294707 874.106884 160.823643 855.594131 161.593538 C 853.284445 161.593538 850.146092 161.693448 846.196705 161.887391 C 842.24144 162.075457 838.433103 162.316417 834.771691 162.61027 C 831.104403 162.898246 827.924911 163.139206 825.227338 163.333149 C 822.523889 163.527092 821.178041 163.621125 821.178041 163.621125 C 820.214202 165.742746 819.632373 167.911383 819.43843 170.127036 C 819.250364 172.348566 819.150454 174.611236 819.150454 176.9268 C 819.150454 178.084581 819.19747 179.530339 819.29738 181.264073 C 819.391413 182.997807 819.826316 184.349532 820.596212 185.313371 C 820.790155 185.507314 822.429856 185.79529 825.515315 186.183176 C 828.600774 186.565185 832.021225 186.953072 835.782546 187.340958 C 839.543868 187.722967 843.111246 188.110853 846.484681 188.492863 C 849.858116 188.880749 851.93272 189.074692 852.702615 189.074692 C 859.067476 189.650644 866.537225 190.326507 875.117739 191.096402 C 883.698254 191.872175 892.472711 192.736103 901.441112 193.699942 C 910.403635 194.66378 919.037043 195.868579 927.329581 197.314337 C 935.616242 198.765971 942.850908 200.452689 949.021826 202.380366 C 954.610915 204.308043 959.770977 207.346486 964.496137 211.489816 C 969.21542 215.633147 973.317611 220.458217 976.785079 225.953272 C 980.258424 231.448327 983.003013 237.231359 985.030601 243.308244 C 987.052311 249.379251 988.069043 255.30921 988.069043 261.092241 Z M 988.069043 261.092241 " stroke="#000000" stroke-width="22.214174" stroke-opacity="1" stroke-miterlimit="4"/><g fill="#8189fb" fill-opacity="1"><g transform="translate(73.644984, 466.543385)"><g><path d="M 133.609375 -0.578125 L 95.359375 0.390625 C 95.097656 -7.941406 94.898438 -16.207031 94.765625 -24.40625 C 94.640625 -32.613281 94.453125 -40.882812 94.203125 -49.21875 L 58.0625 -47.484375 C 57.925781 -46.203125 57.859375 -44.953125 57.859375 -43.734375 C 57.859375 -42.515625 57.859375 -41.328125 57.859375 -40.171875 C 57.859375 -32.992188 58.144531 -25.847656 58.71875 -18.734375 C 59.300781 -11.628906 59.914062 -4.550781 60.5625 2.5 C 58 2.625 55.398438 2.71875 52.765625 2.78125 C 50.140625 2.851562 47.546875 2.890625 44.984375 2.890625 C 39.984375 2.890625 34.953125 2.789062 29.890625 2.59375 C 24.828125 2.40625 19.796875 2.3125 14.796875 2.3125 C 15.054688 -9.613281 15.378906 -21.40625 15.765625 -33.0625 C 16.148438 -44.726562 16.46875 -56.519531 16.71875 -68.4375 C 16.976562 -80.101562 17.140625 -91.640625 17.203125 -103.046875 C 17.265625 -114.453125 17.363281 -125.921875 17.5 -137.453125 L 49.59375 -137.453125 C 50.625 -127.835938 51.332031 -118.253906 51.71875 -108.703125 C 52.101562 -99.160156 52.675781 -89.582031 53.4375 -79.96875 C 59.59375 -80.101562 65.679688 -80.171875 71.703125 -80.171875 C 77.734375 -80.171875 83.882812 -80.234375 90.15625 -80.359375 L 92.078125 -142.640625 C 93.878906 -142.773438 95.644531 -142.84375 97.375 -142.84375 C 99.101562 -142.84375 100.863281 -142.84375 102.65625 -142.84375 C 107.78125 -142.84375 112.8125 -142.710938 117.75 -142.453125 C 122.6875 -142.191406 127.65625 -141.613281 132.65625 -140.71875 C 133.289062 -117.269531 133.539062 -93.910156 133.40625 -70.640625 C 133.28125 -47.378906 133.347656 -24.023438 133.609375 -0.578125 Z M 133.609375 -0.578125 "/></g></g></g><g fill="#ff8600" fill-opacity="1"><g transform="translate(223.027329, 466.543385)"><g><path d="M 172.0625 -82.09375 C 172.0625 -80.425781 172.0625 -78.789062 172.0625 -77.1875 C 172.0625 -75.582031 172 -74.007812 171.875 -72.46875 C 171.738281 -71.1875 171.570312 -68.941406 171.375 -65.734375 C 171.1875 -62.535156 170.929688 -58.851562 170.609375 -54.6875 C 170.296875 -50.53125 169.914062 -46.144531 169.46875 -41.53125 C 169.019531 -36.914062 168.503906 -32.648438 167.921875 -28.734375 C 167.347656 -24.828125 166.738281 -21.460938 166.09375 -18.640625 C 165.457031 -15.828125 164.816406 -14.097656 164.171875 -13.453125 C 160.328125 -9.609375 155.742188 -6.753906 150.421875 -4.890625 C 145.109375 -3.035156 139.566406 -1.785156 133.796875 -1.140625 C 128.035156 -0.503906 122.269531 -0.25 116.5 -0.375 C 110.726562 -0.507812 105.347656 -0.578125 100.359375 -0.578125 C 98.691406 -0.578125 95.867188 -0.609375 91.890625 -0.671875 C 87.921875 -0.734375 83.40625 -0.828125 78.34375 -0.953125 C 73.28125 -1.085938 67.992188 -1.3125 62.484375 -1.625 C 56.972656 -1.945312 51.8125 -2.394531 47 -2.96875 C 42.195312 -3.550781 38.03125 -4.257812 34.5 -5.09375 C 30.976562 -5.925781 28.769531 -6.984375 27.875 -8.265625 C 26.851562 -9.671875 25.957031 -11.207031 25.1875 -12.875 C 24.414062 -14.539062 23.707031 -16.144531 23.0625 -17.6875 C 21.394531 -21.914062 19.859375 -26.429688 18.453125 -31.234375 C 17.046875 -36.046875 15.859375 -40.984375 14.890625 -46.046875 C 13.929688 -51.109375 13.164062 -56.132812 12.59375 -61.125 C 12.019531 -66.125 11.734375 -70.867188 11.734375 -75.359375 C 11.734375 -77.796875 11.921875 -80.96875 12.296875 -84.875 C 12.679688 -88.78125 13.191406 -93.007812 13.828125 -97.5625 C 14.472656 -102.113281 15.242188 -106.757812 16.140625 -111.5 C 17.046875 -116.238281 18.039062 -120.660156 19.125 -124.765625 C 20.21875 -128.867188 21.40625 -132.425781 22.6875 -135.4375 C 23.96875 -138.445312 25.378906 -140.46875 26.921875 -141.5 C 28.203125 -142.394531 30.570312 -143.222656 34.03125 -143.984375 C 37.488281 -144.753906 41.523438 -145.425781 46.140625 -146 C 50.753906 -146.582031 55.6875 -147.097656 60.9375 -147.546875 C 66.195312 -147.992188 71.195312 -148.378906 75.9375 -148.703125 C 80.675781 -149.023438 84.96875 -149.25 88.8125 -149.375 C 92.65625 -149.5 95.476562 -149.5625 97.28125 -149.5625 C 99.707031 -149.5625 103.003906 -149.429688 107.171875 -149.171875 C 111.335938 -148.921875 115.851562 -148.503906 120.71875 -147.921875 C 125.59375 -147.347656 130.53125 -146.644531 135.53125 -145.8125 C 140.53125 -144.976562 145.175781 -143.984375 149.46875 -142.828125 C 153.757812 -141.679688 157.441406 -140.398438 160.515625 -138.984375 C 163.597656 -137.578125 165.523438 -136.039062 166.296875 -134.375 C 166.929688 -132.96875 167.535156 -130.953125 168.109375 -128.328125 C 168.691406 -125.703125 169.175781 -122.722656 169.5625 -119.390625 C 169.945312 -116.054688 170.296875 -112.53125 170.609375 -108.8125 C 170.929688 -105.09375 171.1875 -101.535156 171.375 -98.140625 C 171.570312 -94.742188 171.734375 -91.632812 171.859375 -88.8125 C 171.992188 -86 172.0625 -83.757812 172.0625 -82.09375 Z M 137.640625 -75.75 C 137.640625 -78.3125 137.507812 -81.03125 137.25 -83.90625 C 137 -86.789062 136.171875 -89.328125 134.765625 -91.515625 C 133.734375 -93.046875 131.265625 -94.257812 127.359375 -95.15625 C 123.453125 -96.050781 119.160156 -96.691406 114.484375 -97.078125 C 109.804688 -97.460938 105.285156 -97.6875 100.921875 -97.75 C 96.566406 -97.820312 93.492188 -97.859375 91.703125 -97.859375 C 90.296875 -97.859375 87.828125 -97.726562 84.296875 -97.46875 C 80.773438 -97.207031 77.054688 -96.789062 73.140625 -96.21875 C 69.234375 -95.644531 65.613281 -94.941406 62.28125 -94.109375 C 58.957031 -93.273438 56.910156 -92.28125 56.140625 -91.125 C 55.367188 -90.226562 54.757812 -88.53125 54.3125 -86.03125 C 53.863281 -83.53125 53.476562 -80.835938 53.15625 -77.953125 C 52.832031 -75.066406 52.609375 -72.3125 52.484375 -69.6875 C 52.359375 -67.0625 52.296875 -65.171875 52.296875 -64.015625 C 52.296875 -62.992188 52.328125 -61.457031 52.390625 -59.40625 C 52.453125 -57.351562 52.609375 -55.238281 52.859375 -53.0625 C 53.117188 -50.882812 53.410156 -48.832031 53.734375 -46.90625 C 54.054688 -44.988281 54.535156 -43.578125 55.171875 -42.671875 C 55.554688 -42.035156 56.707031 -41.457031 58.625 -40.9375 C 60.550781 -40.425781 62.890625 -39.945312 65.640625 -39.5 C 68.398438 -39.050781 71.316406 -38.695312 74.390625 -38.4375 C 77.472656 -38.1875 80.453125 -37.960938 83.328125 -37.765625 C 86.210938 -37.578125 88.773438 -37.453125 91.015625 -37.390625 C 93.265625 -37.328125 94.835938 -37.296875 95.734375 -37.296875 C 97.273438 -37.296875 99.9375 -37.421875 103.71875 -37.671875 C 107.5 -37.929688 111.472656 -38.347656 115.640625 -38.921875 C 119.804688 -39.503906 123.648438 -40.210938 127.171875 -41.046875 C 130.691406 -41.878906 132.96875 -42.875 134 -44.03125 C 134.769531 -44.925781 135.410156 -46.8125 135.921875 -49.6875 C 136.429688 -52.570312 136.8125 -55.710938 137.0625 -59.109375 C 137.320312 -62.503906 137.484375 -65.769531 137.546875 -68.90625 C 137.609375 -72.050781 137.640625 -74.332031 137.640625 -75.75 Z M 137.640625 -75.75 "/></g></g></g><g fill="#1ead93" fill-opacity="1"><g transform="translate(406.816221, 466.543385)"><g><path d="M 154.375 -96.5 C 154.375 -93.6875 154.210938 -90.289062 153.890625 -86.3125 C 153.566406 -82.34375 153.050781 -78.304688 152.34375 -74.203125 C 151.644531 -70.109375 150.65625 -66.265625 149.375 -62.671875 C 148.09375 -59.085938 146.488281 -56.269531 144.5625 -54.21875 C 143.800781 -53.320312 141.335938 -52.457031 137.171875 -51.625 C 133.003906 -50.789062 128.003906 -49.957031 122.171875 -49.125 C 116.335938 -48.289062 110.085938 -47.488281 103.421875 -46.71875 C 96.765625 -45.945312 90.453125 -45.269531 84.484375 -44.6875 C 78.523438 -44.113281 73.367188 -43.632812 69.015625 -43.25 C 64.660156 -42.863281 61.90625 -42.671875 60.75 -42.671875 L 59.21875 -2.6875 C 55.238281 -2.4375 51.328125 -2.40625 47.484375 -2.59375 C 43.640625 -2.789062 39.726562 -2.890625 35.75 -2.890625 C 33.1875 -2.890625 30.625 -2.820312 28.0625 -2.6875 C 25.5 -2.5625 22.9375 -2.367188 20.375 -2.109375 C 20.375 -14.160156 20.375 -26.082031 20.375 -37.875 C 20.375 -49.664062 20.117188 -61.582031 19.609375 -73.625 C 19.222656 -84.519531 18.867188 -95.347656 18.546875 -106.109375 C 18.234375 -116.878906 17.945312 -127.710938 17.6875 -138.609375 C 30.882812 -139.503906 44.179688 -140.625 57.578125 -141.96875 C 70.972656 -143.3125 84.332031 -143.984375 97.65625 -143.984375 C 99.96875 -143.984375 103.617188 -143.757812 108.609375 -143.3125 C 113.609375 -142.863281 118.863281 -142.160156 124.375 -141.203125 C 129.894531 -140.242188 134.992188 -139.054688 139.671875 -137.640625 C 144.347656 -136.234375 147.453125 -134.632812 148.984375 -132.84375 C 150.015625 -131.6875 150.878906 -129.441406 151.578125 -126.109375 C 152.285156 -122.773438 152.832031 -119.21875 153.21875 -115.4375 C 153.601562 -111.65625 153.890625 -107.96875 154.078125 -104.375 C 154.273438 -100.789062 154.375 -98.164062 154.375 -96.5 Z M 100.546875 -97.859375 C 100.546875 -99.003906 100.476562 -100.472656 100.34375 -102.265625 C 100.21875 -104.066406 99.992188 -105.832031 99.671875 -107.5625 C 99.359375 -109.289062 98.878906 -110.890625 98.234375 -112.359375 C 97.597656 -113.835938 96.765625 -114.898438 95.734375 -115.546875 C 95.097656 -115.921875 94.070312 -116.238281 92.65625 -116.5 C 91.25 -116.757812 89.773438 -116.953125 88.234375 -117.078125 C 86.703125 -117.203125 85.226562 -117.296875 83.8125 -117.359375 C 82.40625 -117.429688 81.382812 -117.46875 80.75 -117.46875 C 76 -117.46875 71.253906 -117.207031 66.515625 -116.6875 C 61.773438 -116.175781 56.96875 -115.535156 52.09375 -114.765625 C 52.476562 -110.921875 52.703125 -107.140625 52.765625 -103.421875 C 52.835938 -99.710938 52.875 -96 52.875 -92.28125 C 52.875 -86.257812 53.0625 -80.171875 53.4375 -74.015625 C 55.101562 -74.015625 57.988281 -74.109375 62.09375 -74.296875 C 66.195312 -74.492188 70.488281 -74.816406 74.96875 -75.265625 C 79.457031 -75.710938 83.6875 -76.351562 87.65625 -77.1875 C 91.632812 -78.019531 94.328125 -79.140625 95.734375 -80.546875 C 98.046875 -82.722656 99.425781 -85.378906 99.875 -88.515625 C 100.320312 -91.660156 100.546875 -94.773438 100.546875 -97.859375 Z M 100.546875 -97.859375 "/></g></g></g><g fill="#ffde59" fill-opacity="1"><g transform="translate(571.963472, 466.543385)"><g><path d="M 158.40625 -33.828125 C 158.40625 -27.679688 156.929688 -22.71875 153.984375 -18.9375 C 151.035156 -15.15625 146.875 -12.109375 141.5 -9.796875 C 137.007812 -7.878906 131.367188 -6.375 124.578125 -5.28125 C 117.785156 -4.195312 110.734375 -3.429688 103.421875 -2.984375 C 96.117188 -2.535156 88.941406 -2.242188 81.890625 -2.109375 C 74.847656 -1.984375 68.953125 -1.921875 64.203125 -1.921875 C 56.128906 -1.921875 48.148438 -2.046875 40.265625 -2.296875 C 32.390625 -2.554688 24.414062 -2.941406 16.34375 -3.453125 C 16.726562 -16.523438 16.34375 -29.472656 15.1875 -42.296875 C 24.800781 -42.035156 34.378906 -41.804688 43.921875 -41.609375 C 53.472656 -41.421875 63.054688 -41.203125 72.671875 -40.953125 C 76.390625 -40.816406 80.140625 -40.6875 83.921875 -40.5625 C 87.703125 -40.4375 91.515625 -40.375 95.359375 -40.375 C 95.992188 -40.375 96.953125 -40.375 98.234375 -40.375 C 99.515625 -40.375 100.859375 -40.4375 102.265625 -40.5625 C 103.679688 -40.6875 105 -40.878906 106.21875 -41.140625 C 107.4375 -41.398438 108.363281 -41.785156 109 -42.296875 C 109.507812 -42.804688 109.828125 -43.539062 109.953125 -44.5 C 110.085938 -45.46875 110.15625 -46.332031 110.15625 -47.09375 C 110.15625 -48.507812 109.960938 -50.207031 109.578125 -52.1875 C 109.191406 -54.175781 108.613281 -55.8125 107.84375 -57.09375 C 107.71875 -57.226562 107.300781 -57.359375 106.59375 -57.484375 C 105.894531 -57.609375 105.09375 -57.703125 104.1875 -57.765625 C 103.289062 -57.828125 102.457031 -57.890625 101.6875 -57.953125 C 100.925781 -58.023438 100.484375 -58.0625 100.359375 -58.0625 C 92.148438 -58.695312 83.976562 -59.140625 75.84375 -59.390625 C 67.707031 -59.648438 59.535156 -60.101562 51.328125 -60.75 C 47.609375 -61.132812 43.796875 -61.519531 39.890625 -61.90625 C 35.984375 -62.289062 32.363281 -62.992188 29.03125 -64.015625 C 25.820312 -64.910156 23.097656 -66.925781 20.859375 -70.0625 C 18.617188 -73.207031 16.820312 -76.796875 15.46875 -80.828125 C 14.125 -84.867188 13.164062 -88.941406 12.59375 -93.046875 C 12.019531 -97.148438 11.734375 -100.609375 11.734375 -103.421875 C 11.734375 -108.035156 12.179688 -112.425781 13.078125 -116.59375 C 13.972656 -120.757812 15.410156 -124.632812 17.390625 -128.21875 C 19.378906 -131.8125 21.910156 -134.984375 24.984375 -137.734375 C 28.066406 -140.492188 31.847656 -142.769531 36.328125 -144.5625 C 44.023438 -147.507812 52.257812 -149.5625 61.03125 -150.71875 C 69.8125 -151.875 78.238281 -152.453125 86.3125 -152.453125 C 95.800781 -152.453125 105.160156 -151.875 114.390625 -150.71875 C 123.617188 -149.5625 132.84375 -148.085938 142.0625 -146.296875 C 141.9375 -142.578125 141.84375 -138.890625 141.78125 -135.234375 C 141.71875 -131.585938 141.6875 -127.90625 141.6875 -124.1875 C 141.6875 -120.46875 141.878906 -116.71875 142.265625 -112.9375 C 142.648438 -109.15625 143.035156 -105.410156 143.421875 -101.703125 C 131.242188 -101.441406 119.097656 -101.210938 106.984375 -101.015625 C 94.867188 -100.828125 82.660156 -100.476562 70.359375 -99.96875 C 68.828125 -99.96875 66.742188 -99.898438 64.109375 -99.765625 C 61.484375 -99.640625 58.953125 -99.476562 56.515625 -99.28125 C 54.085938 -99.09375 51.972656 -98.9375 50.171875 -98.8125 C 48.378906 -98.6875 47.484375 -98.625 47.484375 -98.625 C 46.835938 -97.207031 46.453125 -95.757812 46.328125 -94.28125 C 46.203125 -92.8125 46.140625 -91.3125 46.140625 -89.78125 C 46.140625 -89.007812 46.171875 -88.046875 46.234375 -86.890625 C 46.296875 -85.742188 46.582031 -84.847656 47.09375 -84.203125 C 47.226562 -84.078125 48.316406 -83.882812 50.359375 -83.625 C 52.410156 -83.375 54.6875 -83.117188 57.1875 -82.859375 C 59.6875 -82.597656 62.054688 -82.335938 64.296875 -82.078125 C 66.546875 -81.828125 67.925781 -81.703125 68.4375 -81.703125 C 72.664062 -81.316406 77.628906 -80.867188 83.328125 -80.359375 C 89.035156 -79.847656 94.867188 -79.269531 100.828125 -78.625 C 106.785156 -77.988281 112.519531 -77.1875 118.03125 -76.21875 C 123.550781 -75.257812 128.359375 -74.140625 132.453125 -72.859375 C 136.171875 -71.578125 139.597656 -69.554688 142.734375 -66.796875 C 145.878906 -64.046875 148.601562 -60.84375 150.90625 -57.1875 C 153.21875 -53.539062 155.046875 -49.695312 156.390625 -45.65625 C 157.734375 -41.625 158.40625 -37.679688 158.40625 -33.828125 Z M 158.40625 -33.828125 "/></g></g></g></svg>